#!OML:ASF H:\MichaelJackson\Top Level 1\Subject 1\Session 1\male.ASF
:FULLY-SPECIFIED
:DEGREES
281
root 5.05918 15.7457 9.56124 -8.27933 -0.820237 2.27465
lowerback 5.1894 4.55106 -3.55606
upperback 1.29142 5.86127 -0.611192
thorax -1.85772 2.93842 0.945621
lowerneck -7.94043 -3.34763 1.21408
upperneck 11.5999 -4.87542 1.58187
head 4.79622 -2.23882 -0.022384
rclavicle 8.80243e-014 -2.34566e-014
rhumerus -30.9683 11.4768 -87.9781
rradius 77.0879
rwrist -0.358233
rhand -30.372 -25.9849
rfingers 7.12502
rthumb -3.67669 -55.9329
lclavicle 8.80243e-014 -2.34566e-014
lhumerus -57.4995 -1.11383 85.0284
lradius 57.4745
lwrist 25.3426
lhand -19.1824 11.7632
lfingers 7.12502
lthumb 7.12904 41.6231
rfemur -35.4326 -16.5423 7.37598
rtibia 114.424
rfoot 26.2309 13.9224
rtoes 11.8308
lfemur -31.1971 12.7875 -21.0896
ltibia 44.0711
lfoot -0.964431 -11.9315
ltoes 32.6566
282
root 5.08622 15.7586 9.71115 -9.11626 -0.969203 2.7792
lowerback 5.96562 4.49303 -4.03684
upperback 1.60464 5.72306 -0.736582
thorax -1.99323 2.86836 1.04284
lowerneck -7.85576 -3.19289 1.30751
upperneck 11.3563 -4.67992 1.66012
head 4.70652 -2.13857 0.00324465
rclavicle 5.45167e-014 -1.55052e-014
rhumerus -32.2465 10.2198 -87.3683
rradius 77.6381
rwrist -0.299604
rhand -30.862 -26.9985
rfingers 7.12502
rthumb -4.14988 -56.9378
lclavicle 5.45167e-014 -1.55052e-014
lhumerus -56.8868 -1.56022 85.4021
lradius 57.2825
lwrist 24.6425
lhand -19.0166 11.2931
lfingers 7.12502
lthumb 7.28914 41.1475
rfemur -40.0438 -17.3093 9.15734
rtibia 115.51
rfoot 25.473 13.0751
rtoes 12.8597
lfemur -29.8513 13.8507 -21.4381
ltibia 44.506
lfoot -1.57915 -12.8456
ltoes 33.5134
283
root 5.11022 15.7706 9.8606 -10.0165 -1.04841 3.2337
lowerback 6.79075 4.41973 -4.46791
upperback 1.92866 5.55751 -0.869967
thorax -2.13464 2.78403 1.10652
lowerneck -7.75178 -3.03601 1.42678
upperneck 11.2058 -4.48685 1.74214
head 4.64193 -2.03698 0.0246661
rclavicle -9.93923e-017 -1.51076e-014
rhumerus -33.5061 9.05654 -86.7374
rradius 78.1608
rwrist -0.415217
rhand -31.3408 -28.1711
rfingers 7.12502
rthumb -4.61221 -58.1009
lclavicle -9.93923e-017 -1.51076e-014
lhumerus -56.2951 -2.18408 85.7884
lradius 57.1748
lwrist 23.9582
lhand -18.9528 10.6708
lfingers 7.12502
lthumb 7.35074 40.5231
rfemur -44.4552 -17.4885 11.2229
rtibia 115.555
rfoot 24.6105 12.2272
rtoes 13.1137
lfemur -28.4219 15.0053 -21.7174
ltibia 44.9077
lfoot -2.25806 -13.8423
ltoes 33.8936
284
root 5.13209 15.7825 10.0104 -10.9489 -0.952681 3.58926
lowerback 7.64394 4.29294 -4.79677
upperback 2.25532 5.31964 -1.00475
thorax -2.27202 2.66307 1.12172
lowerneck -7.64229 -2.88137 1.558
upperneck 11.171 -4.30124 1.82704
head 4.61197 -1.93661 0.0431935
rclavicle -1.03368e-014 -1.51076e-014
rhumerus -34.7442 7.96708 -86.0865
rradius 78.6167
rwrist -0.546682
rhand -31.8242 -29.4176
rfingers 7.12502
rthumb -5.07899 -59.3367
lclavicle -1.03368e-014 -1.51076e-014
lhumerus -55.7027 -2.96095 86.1701
lradius 57.1278
lwrist 23.3021
lhand -18.9772 9.93794
lfingers 7.12502
lthumb 7.32717 39.7911
rfemur -48.5027 -17.2191 13.3488
rtibia 114.518
rfoot 23.5348 11.4772
rtoes 12.4953
lfemur -26.9472 16.1113 -21.8928
ltibia 45.2817
lfoot -2.97975 -14.8862
ltoes 33.9171
285
root 5.15235 15.7946 10.1609 -11.8702 -0.661141 3.82969
lowerback 8.49721 4.10503 -5.00962
upperback 2.57463 5.00453 -1.13531
thorax -2.39987 2.50336 1.0908
lowerneck -7.55067 -2.73592 1.68485
upperneck 11.2594 -4.13076 1.90892
head 4.623 -1.84178 0.0589416
rclavicle -1.02523e-013 3.33958e-014
rhumerus -35.9574 6.93436 -85.4059
rradius 78.9815
rwrist -0.556344
rhand -32.3209 -30.676
rfingers 7.12502
rthumb -5.55856 -60.5831
lclavicle -1.02523e-013 3.33958e-014
lhumerus -55.0798 -3.84472 86.5271
lradius 57.1129
lwrist 22.6539
lhand -19.0049 9.17197
lfingers 7.12502
lthumb 7.30039 39.026
rfemur -52.0879 -16.6294 15.3256
rtibia 112.398
rfoot 22.1568 10.9217
rtoes 11.0341
lfemur -25.4754 17.0983 -21.9587
ltibia 45.6226
lfoot -3.71983 -15.9445
ltoes 33.5691
286
root 5.17141 15.8093 10.3115 -12.7305 -0.17074 3.94241
lowerback 9.31632 3.85498 -5.09336
upperback 2.87375 4.61714 -1.25855
thorax -2.51387 2.30779 1.01256
lowerneck -7.48119 -2.60948 1.79845
upperneck 11.4488 -3.98671 1.98174
head 4.669 -1.75897 0.0711748
rclavicle 7.03698e-014 -3.1408e-014
rhumerus -37.1498 5.94292 -84.685
rradius 79.2478
rwrist -0.365563
rhand -32.8211 -31.9236
rfingers 7.12502
rthumb -6.04148 -61.8175
lclavicle 7.03698e-014 -3.1408e-014
lhumerus -54.3968 -4.79218 86.8347
lradius 57.0955
lwrist 21.9858
lhand -18.9295 8.3674
lfingers 7.12502
lthumb 7.37323 38.2189
rfemur -55.1736 -15.8589 17.0136
rtibia 109.214
rfoot 20.4798 10.6049
rtoes 8.88467
lfemur -24.0506 17.8897 -21.9165
ltibia 45.9004
lfoot -4.43984 -16.9638
ltoes 33.0034
287
root 5.18934 15.8305 10.4613 -13.4818 0.451554 3.94528
lowerback 10.0585 3.56366 -5.06374
upperback 3.1421 4.18955 -1.37294
thorax -2.60724 2.09263 0.896055
lowerneck -7.45073 -2.50491 1.8865
upperneck 11.715 -3.87161 2.04623
head 4.74562 -1.69008 0.082086
rclavicle -4.25399e-014 5.56597e-015
rhumerus -38.3322 5.00081 -83.9161
rradius 79.4305
rwrist 0.0496965
rhand -33.3071 -33.1508
rfingers 7.12502
rthumb -6.51072 -63.0307
lclavicle -4.25399e-014 5.56597e-015
lhumerus -53.6336 -5.75181 87.0744
lradius 57.0575
lwrist 21.2541
lhand -18.6923 7.57799
lfingers 7.12502
lthumb 7.60219 37.4214
rfemur -57.7667 -14.9623 18.337
rtibia 104.999
rfoot 18.5994 10.5368
rtoes 6.21545
lfemur -22.7006 18.4786 -21.788
ltibia 46.0664
lfoot -5.08875 -17.9081
ltoes 32.3092
288
root 5.20558 15.8621 10.608 -14.0935 1.19004 3.84996
lowerback 10.7035 3.23838 -4.94237
upperback 3.3738 3.73293 -1.476
thorax -2.68004 1.86367 0.7545
lowerneck -7.44979 -2.42602 1.94797
upperneck 12.0019 -3.78868 2.10241
head 4.83397 -1.6378 0.0923268
rclavicle 5.1684e-015 -2.38542e-014
rhumerus -39.5162 4.0989 -83.0952
rradius 79.5706
rwrist 0.625591
rhand -33.7402 -34.3644
rfingers 7.12502
rthumb -6.92874 -64.231
lclavicle 5.1684e-015 -2.38542e-014
lhumerus -52.7932 -6.6911 87.2394
lradius 57.0071
lwrist 20.4563
lhand -18.2658 6.84529
lfingers 7.12502
lthumb 8.01376 36.6734
rfemur -59.8559 -14.0173 19.2638
rtibia 99.802
rfoot 16.6335 10.6142
rtoes 3.50494
lfemur -21.4392 18.8378 -21.6013
ltibia 46.0639
lfoot -5.6231 -18.7554
ltoes 31.5633
289
root 5.22001 15.9075 10.75 -14.548 1.99403 3.68163
lowerback 11.2165 2.89595 -4.76167
upperback 3.57432 3.27016 -1.56083
thorax -2.71331 1.63193 0.610451
lowerneck -7.47231 -2.37251 1.97771
upperneck 12.258 -3.73443 2.1454
head 4.91722 -1.60207 0.101911
rclavicle -3.76448e-014 1.03368e-014
rhumerus -40.6866 3.26682 -82.2198
rradius 79.6723
rwrist 1.2749
rhand -34.1295 -35.4926
rfingers 7.12502
rthumb -7.30456 -65.3465
lclavicle -3.76448e-014 1.03368e-014
lhumerus -51.8794 -7.57646 87.3372
lradius 56.9557
lwrist 19.5942
lhand -17.6665 6.20693
lfingers 7.12502
lthumb 8.59217 36.0121
rfemur -61.4429 -13.0258 19.7881
rtibia 93.7103
rfoot 14.6779 10.6893
rtoes 1.09562
lfemur -20.269 18.9888 -21.3869
ltibia 45.8508
lfoot -6.01042 -19.4956
ltoes 30.8444
290
root 5.23232 15.9653 10.8864 -14.8421 2.80966 3.47249
lowerback 11.5964 2.55583 -4.54831
upperback 3.73744 2.82372 -1.63452
thorax -2.7161 1.40876 0.4659
lowerneck -7.49795 -2.34151 1.98311
upperneck 12.4444 -3.70502 2.18378
head 4.97987 -1.58114 0.113019
rclavicle 8.93289e-015 7.55382e-015
rhumerus -41.8538 2.50623 -81.3104
rradius 79.7664
rwrist 1.84457
rhand -34.4346 -36.5215
rfingers 7.12502
rthumb -7.59909 -66.365
lclavicle 8.93289e-015 7.55382e-015
lhumerus -50.9385 -8.40253 87.3699
lradius 56.9453
lwrist 18.7106
lhand -16.9435 5.66539
lfingers 7.12502
lthumb 9.28989 35.4407
rfemur -62.5641 -11.9573 19.9138
rtibia 86.8757
rfoot 12.7619 10.5453
rtoes -0.850059
lfemur -19.1901 18.9888 -21.1733
ltibia 45.4173
lfoot -6.25471 -20.1316
ltoes 30.216
291
root 5.24265 16.0319 11.0177 -14.9886 3.62173 3.24798
lowerback 11.8478 2.22332 -4.33206
upperback 3.86899 2.39655 -1.69557
thorax -2.68673 1.19541 0.336468
lowerneck -7.52303 -2.32731 1.95521
upperneck 12.5421 -3.6918 2.22547
head 5.01566 -1.57116 0.130223
rclavicle 5.72003e-014 -3.65764e-014
rhumerus -43.0112 1.83134 -80.377
rradius 79.8638
rwrist 2.24708
rhand -34.6334 -37.4041
rfingers 7.12502
rthumb -7.79096 -67.2405
lclavicle 5.72003e-014 -3.65764e-014
lhumerus -50.0068 -9.16715 87.3615
lradius 57.0133
lwrist 17.8852
lhand -16.1613 5.26861
lfingers 7.12502
lthumb 10.0446 35.0089
rfemur -63.2797 -10.8042 19.6374
rtibia 79.5085
rfoot 10.8952 9.93387
rtoes -2.36977
lfemur -18.2001 18.8752 -20.9851
ltibia 44.7902
lfoot -6.38756 -20.6695
ltoes 29.7068
292
root 5.25114 16.1026 11.1452 -14.9959 4.411 3.02436
lowerback 11.9792 1.90582 -4.12338
upperback 3.9664 1.99553 -1.74766
thorax -2.63281 0.995316 0.221038
lowerneck -7.55363 -2.32655 1.9017
upperneck 12.5578 -3.69134 2.26971
head 5.02747 -1.57 0.152082
rclavicle 9.79014e-015 -5.96354e-015
rhumerus -44.1647 1.24036 -79.4374
rradius 79.9747
rwrist 2.38698
rhand -34.7406 -38.0459
rfingers 7.12502
rthumb -7.89441 -67.8785
lclavicle 9.79014e-015 -5.96354e-015
lhumerus -49.1292 -9.90018 87.3292
lradius 57.1963
lwrist 17.2189
lhand -15.3379 4.98536
lfingers 7.12502
lthumb 10.8389 34.6857
rfemur -63.701 -9.56778 18.9774
rtibia 71.8687
rfoot 9.10436 8.63721
rtoes -3.64839
lfemur -17.3116 18.7009 -20.8351
ltibia 44.0212
lfoot -6.45927 -21.1219
ltoes 29.3352
